<?xml version="1.0" encoding="UTF-8"?> <svg xmlns="http://www.w3.org/2000/svg" xmlns:xlink="http://www.w3.org/1999/xlink" width="260px" height="61px" viewBox="0 0 260 61"> <title>Black Horizontal - Superna Logo</title> <g id="Site-Map" stroke="none" stroke-width="1" fill="none" fill-rule="evenodd"> <g id="Black-Horizontal---Superna-Logo"> <g id="Group-26" transform="translate(69.706000, 15.837000)" fill="#1E1E1E" fill-rule="nonzero"> <path d="M99.165,0 C102.905,0 105.9565,1.3175 108.3195,3.9525 C110.6825,6.5875 111.864,9.758 111.864,13.464 C111.864,14.11 111.813,14.773 111.711,15.453 L90.342,15.453 C90.784,17.731 91.8295,19.499 93.4785,20.757 C95.1275,22.015 97.159,22.644 99.573,22.644 C102.939,22.644 105.387,21.403 106.917,18.921 L110.691,21.063 C108.209,24.905 104.469,26.826 99.471,26.826 C95.425,26.826 92.1355,25.5595 89.6025,23.0265 C87.3927166,20.8167166 86.1468382,18.0958695 85.8648648,14.8639587 L81.3612381,14.8643111 C81.072958,17.980112 79.8368787,20.6668417 77.653,22.9245 C75.137,25.5255 72.094,26.826 68.524,26.826 C64.308,26.826 61.095,25.143 58.885,21.777 L58.885,36.363 L54.448,36.363 L54.448,0.663 L58.885,0.663 L58.885,5.049 C61.095,1.683 64.308,0 68.524,0 C72.094,0 75.137,1.3005 77.653,3.9015 C79.7667599,6.08667072 80.9926063,8.6738023 81.3305391,11.6628947 L85.8934801,11.6632623 C86.2200895,8.5902238 87.4309295,5.9774697 89.526,3.825 C92.008,1.275 95.221,0 99.165,0 Z M9.945,0 C12.019,0 13.8635,0.4675 15.4785,1.4025 C17.0935,2.3375 18.309,3.638 19.125,5.304 L15.402,7.395 C14.484,5.219 12.665,4.131 9.945,4.131 C8.687,4.131 7.616,4.4285 6.732,5.0235 C5.848,5.6185 5.406,6.46 5.406,7.548 C5.406,8.534 5.899,9.3245 6.885,9.9195 C7.871,10.5145 9.061,10.9905 10.455,11.3475 C11.849,11.7045 13.243,12.1125 14.637,12.5715 C16.031,13.0305 17.221,13.8125 18.207,14.9175 C19.193,16.0225 19.686,17.442 19.686,19.176 C19.686,21.488 18.7935,23.341 17.0085,24.735 C15.2235,26.129 12.937,26.826 10.149,26.826 C7.667,26.826 5.542,26.282 3.774,25.194 C2.006,24.106 0.748,22.661 0,20.859 L3.825,18.666 C4.233,19.89 4.998,20.859 6.12,21.573 C7.242,22.287 8.585,22.644 10.149,22.644 C11.611,22.644 12.818,22.3635 13.77,21.8025 C14.722,21.2415 15.198,20.366 15.198,19.176 C15.198,18.19 14.705,17.3995 13.719,16.8045 C12.733,16.2095 11.543,15.7335 10.149,15.3765 C8.755,15.0195 7.361,14.603 5.967,14.127 C4.573,13.651 3.383,12.869 2.397,11.781 C1.411,10.693 0.918,9.299 0.918,7.599 C0.918,5.389 1.7765,3.57 3.4935,2.142 C5.2105,0.714 7.361,0 9.945,0 Z M29.06,0.663 L29.06,16.065 C29.06,18.139 29.621,19.7455 30.743,20.8845 C31.865,22.0235 33.412,22.593 35.384,22.593 C37.594,22.593 39.379,21.9045 40.739,20.5275 C42.099,19.1505 42.779,17.034 42.779,14.178 L42.779,0.663 L47.216,0.663 L47.216,26.163 L42.779,26.163 L42.779,22.491 C40.977,25.381 38.223,26.826 34.517,26.826 C31.525,26.826 29.128,25.8825 27.326,23.9955 C25.524,22.1085 24.623,19.55 24.623,16.32 L24.623,0.663 L29.06,0.663 Z M175.431,0 C179.647,0 182.86,1.683 185.07,5.049 L185.07,0.663 L189.507,0.663 L189.507,26.163 L185.07,26.163 L185.07,21.777 C182.86,25.143 179.647,26.826 175.431,26.826 C171.861,26.826 168.818,25.5255 166.302,22.9245 C163.786,20.3235 162.528,17.153 162.528,13.413 C162.528,9.673 163.786,6.5025 166.302,3.9015 C168.818,1.3005 171.861,0 175.431,0 Z M147.391,0 C150.383,0 152.78,0.9435 154.582,2.8305 C156.384,4.7175 157.285,7.276 157.285,10.506 L157.285,26.163 L152.848,26.163 L152.848,10.761 C152.848,8.687 152.287,7.0805 151.165,5.9415 C150.043,4.8025 148.496,4.233 146.524,4.233 C144.314,4.233 142.529,4.9215 141.169,6.2985 C139.809,7.6755 139.129,9.792 139.129,12.648 L139.129,26.163 L134.692,26.163 L134.692,0.663 L139.129,0.663 L139.129,4.335 C140.931,1.445 143.685,0 147.391,0 Z M129.857,0.204 L129.857,4.845 C127.681,4.743 125.811,5.321 124.247,6.579 C122.683,7.837 121.901,9.86 121.901,12.648 L121.901,26.163 L117.464,26.163 L117.464,0.663 L121.901,0.663 L121.9,4.946 L122.037187,4.66390083 C123.52482,1.69063361 126.131424,0.204 129.857,0.204 Z M70.7656864,14.8637154 C70.2246156,15.6485687 69.3193837,16.163 68.294,16.163 C66.6371458,16.163 65.294,14.8198542 65.294,13.163 C65.294,11.5061458 66.6371458,10.163 68.294,10.163 C69.4045424,10.163 70.3741468,10.7664271 70.89282,11.663288 L76.8468875,11.6633797 C76.5355551,9.83506485 75.7162593,8.2507716 74.389,6.9105 C72.655,5.1595 70.513,4.284 67.963,4.284 C65.379,4.284 63.22,5.1595 61.486,6.9105 C59.752,8.6615 58.885,10.829 58.885,13.413 C58.885,15.997 59.752,18.1645 61.486,19.9155 C63.22,21.6665 65.379,22.542 67.963,22.542 C70.513,22.542 72.655,21.6665 74.389,19.9155 C75.7880826,18.5027009 76.6227384,16.8187556 76.8929674,14.863664 Z M175.992,4.284 C173.442,4.284 171.3,5.1595 169.566,6.9105 C167.832,8.6615 166.965,10.829 166.965,13.413 C166.965,15.997 167.832,18.1645 169.566,19.9155 C171.3,21.6665 173.442,22.542 175.992,22.542 C178.576,22.542 180.735,21.6665 182.469,19.9155 C184.203,18.1645 185.07,15.997 185.07,13.413 C185.07,10.829 184.203,8.6615 182.469,6.9105 C180.735,5.1595 178.576,4.284 175.992,4.284 Z M99.165,4.182 C96.785,4.182 94.813,4.8535 93.249,6.1965 C91.685,7.5395 90.716,9.333 90.342,11.577 L107.376,11.577 C107.002,9.163 106.05,7.327 104.52,6.069 C102.99,4.811 101.205,4.182 99.165,4.182 Z" id="Combined-Shape"></path> </g> <g id="Group-7"> <path d="M27.2887261,45.2551143 L6.20760582,33.4611841 C-2.02597848,28.8549274 -2.07993106,17.0253202 6.11115573,12.3440371 L26.9398268,0.44027791 C27.9562691,-0.140696123 29.2026875,-0.147079492 30.2250759,0.423401332 L40.882679,6.37051527 C41.3808441,6.64841043 41.3851288,7.36369755 40.8902866,7.64753887 L15.9565844,21.9543305 C15.3100279,22.3252655 15.3102902,23.2581118 15.9571091,23.628697 L27.7700146,30.3962924 C28.2152765,30.6514523 28.489499,31.1258328 28.4882748,31.6390382 L28.4569701,44.5720064 C28.4554835,45.170644 27.8112005,45.5474377 27.2887261,45.2551143" id="Fill-1" fill="#FCCC1E"></path> <path d="M31.5409418,15.7449475 L52.6221495,27.5388778 C60.8556464,32.1451345 60.909599,43.9747417 52.7185122,48.6560247 L31.889841,60.559784 C30.8733988,61.140758 29.6269804,61.1471414 28.604592,60.5766605 L17.9469889,54.6295466 C17.4488238,54.3516514 17.444539,53.6363643 17.9393813,53.352523 L42.8730834,39.0457314 C43.51964,38.674709 43.5193777,37.7419501 42.8725588,37.3713649 L31.0596533,30.6037694 C30.6143914,30.3486095 30.3401689,29.874229 30.3413931,29.3610236 L30.3726978,16.4280555 C30.3741844,15.8294179 31.0184674,15.4526242 31.5409418,15.7449475" id="Fill-4" fill="#1869FF"></path> </g> </g> </g> </svg> 